2.6Hz3min_grf.mot
version=1
nRows=27
nColumns 19
inDegrees=yes
endheader
time	1_ground_force_vx	1_ground_force_vy	1_ground_force_vz	1_ground_force_px	1_ground_force_py	1_ground_force_pz	1_ground_torque_x	1_ground_torque_y	1_ground_torque_z	2_ground_force_vx	2_ground_force_vy	2_ground_force_vz	2_ground_force_px	2_ground_force_py	2_ground_force_pz	2_ground_torque_x	2_ground_torque_y	2_ground_torque_z
            1.253500	            9.383695	          283.573915	           -2.109193	           -0.189495	            0.006450	           -0.456364	            0.004230	            0.127819	           -0.000951	           -9.057792	          188.286348	           19.493907	           -0.194163	            0.005869	           -0.722000	           -0.020419	            0.424457	            0.043945
            1.254000	            9.565981	          289.522688	           -2.084141	           -0.189719	            0.006451	           -0.456749	            0.009560	            0.289339	           -0.002083	           -7.571641	          191.972720	           20.069548	           -0.194633	            0.005869	           -0.722471	           -0.019071	            0.483532	            0.050550
            1.254500	            9.885649	          295.651979	           -2.104512	           -0.189488	            0.006453	           -0.457047	            0.020807	            0.622280	           -0.004430	           -5.385311	          196.218767	           19.332874	           -0.195368	            0.005869	           -0.723198	           -0.009718	            0.354087	            0.034887
            1.255000	            9.287397	          303.224595	           -2.437416	           -0.189857	            0.006448	           -0.455890	            0.022235	            0.725952	           -0.005835	           -3.287926	          199.174594	           18.826282	           -0.196339	            0.005862	           -0.722072	           -0.004409	            0.267063	            0.025243
            1.255500	            8.140270	          308.992875	           -2.409837	           -0.189862	            0.006448	           -0.456049	            0.016508	            0.626626	           -0.004887	           -0.583198	          202.682698	           18.978394	           -0.196360	            0.005864	           -0.722683	           -0.000508	            0.176553	            0.016532
            1.256000	            6.990455	          316.387706	           -3.338275	           -0.189853	            0.006447	           -0.455664	            0.008993	            0.407013	           -0.004294	            1.557378	          206.740921	           19.226574	           -0.197466	            0.005859	           -0.722573	            0.001999	            0.265345	            0.024677
            1.256500	            5.382489	          322.880892	           -4.223585	           -0.189557	            0.006448	           -0.455846	            0.002284	            0.136986	           -0.001792	            3.837381	          211.166259	           19.945288	           -0.197675	            0.005861	           -0.723102	            0.005413	            0.297878	            0.028136
            1.257000	            4.233262	          329.553812	           -4.971691	           -0.189345	            0.006449	           -0.456048	            0.000852	            0.066313	           -0.001000	            5.367161	          215.772696	           20.758835	           -0.198189	            0.005860	           -0.723525	            0.009530	            0.383121	            0.036859
            1.257500	            3.680367	          336.046023	           -5.584482	           -0.189696	            0.006446	           -0.455595	            0.002757	            0.251733	           -0.004183	            6.619125	          219.457720	           21.475360	           -0.198600	            0.005858	           -0.723393	            0.012067	            0.400093	            0.039152
            1.258000	            2.853521	          342.716510	           -5.737258	           -0.189599	            0.006448	           -0.455878	            0.003655	            0.438931	           -0.007348	            8.056267	          223.697713	           21.677567	           -0.199035	            0.005858	           -0.723636	            0.011683	            0.324397	            0.031436
            1.258500	            1.659472	          350.649149	           -5.975425	           -0.189553	            0.006447	           -0.455818	            0.002461	            0.519925	           -0.008860	            9.022026	          228.674450	           21.366392	           -0.199352	            0.005855	           -0.723143	            0.013988	            0.354544	            0.033127
            1.259000	            0.190971	          357.139020	           -6.081525	           -0.189841	            0.006449	           -0.456293	            0.000311	            0.582324	           -0.009916	           10.502531	          233.836685	           21.196440	           -0.199646	            0.005856	           -0.723899	            0.012990	            0.289226	            0.026217
            1.259500	           -1.507723	          363.990950	           -6.552358	           -0.189839	            0.006448	           -0.455976	           -0.001599	            0.385923	           -0.006947	           12.357815	          239.000441	           20.979400	           -0.200019	            0.005857	           -0.724380	            0.013150	            0.254326	            0.022325
            1.260000	           -3.299519	          371.746324	           -7.523513	           -0.189651	            0.006446	           -0.455541	           -0.001567	            0.176582	           -0.003574	           13.702854	          242.869609	           21.790398	           -0.199997	            0.005854	           -0.723636	            0.015369	            0.272401	            0.024440
            1.260500	           -4.908104	          379.141656	           -8.588382	           -0.189603	            0.006446	           -0.455420	           -0.000850	            0.065658	           -0.001487	           14.387364	          248.025287	           22.653203	           -0.200471	            0.005852	           -0.723630	            0.020517	            0.353702	            0.032305
            1.261000	           -6.699116	          385.093586	           -9.383843	           -0.189698	            0.006448	           -0.455832	           -0.001490	            0.085624	           -0.002086	           14.981119	          252.441690	           24.170412	           -0.200305	            0.005855	           -0.724128	            0.023910	            0.402908	            0.038577
            1.261500	           -7.390210	          393.389016	          -10.126131	           -0.189767	            0.006444	           -0.455087	           -0.006480	            0.344949	           -0.008879	           15.102745	          257.779646	           24.987185	           -0.200677	            0.005854	           -0.724212	            0.023751	            0.405385	            0.039295
            1.262000	           -8.629125	          400.959542	           -9.998882	           -0.189872	            0.006445	           -0.455150	           -0.010356	            0.481187	           -0.012000	           15.269103	          263.671228	           25.524340	           -0.200767	            0.005855	           -0.724718	            0.027958	            0.482783	            0.046735
            1.262500	           -9.869014	          407.630736	          -10.334058	           -0.189659	            0.006445	           -0.455233	           -0.010334	            0.426840	           -0.010821	           15.391086	          268.827584	           25.636535	           -0.201134	            0.005855	           -0.725078	            0.023506	            0.410565	            0.039153
            1.263000	          -11.384092	          415.022879	          -10.665459	           -0.190069	            0.006446	           -0.455404	           -0.005586	            0.203635	           -0.005233	           15.796220	          273.431970	           25.887422	           -0.201035	            0.005853	           -0.724296	            0.023608	            0.408661	            0.038690
            1.263500	          -12.670315	          423.136583	          -11.086049	           -0.190189	            0.006443	           -0.454892	           -0.004686	            0.156508	           -0.004100	           15.963346	          279.138575	           26.658561	           -0.201136	            0.005853	           -0.724514	            0.023602	            0.412715	            0.039415
            1.264000	          -14.141222	          429.089951	          -12.203299	           -0.189891	            0.006446	           -0.455514	           -0.002576	            0.078167	           -0.002223	           15.613213	          285.395071	           27.619603	           -0.201623	            0.005854	           -0.725267	            0.022493	            0.411151	            0.039790
            1.264500	          -15.338201	          438.108903	          -13.537370	           -0.189786	            0.006442	           -0.454613	           -0.003377	            0.096465	           -0.002981	           15.270428	          289.625624	           28.667273	           -0.200906	            0.005855	           -0.724713	            0.022299	            0.422924	            0.041861
            1.265000	          -16.625349	          445.683549	          -14.372982	           -0.190042	            0.006441	           -0.454443	           -0.012196	            0.326956	           -0.010544	           14.265264	          295.693937	           30.097217	           -0.200725	            0.005856	           -0.724799	            0.020270	            0.420155	            0.042766
            1.265500	          -16.949081	          453.076966	          -14.936621	           -0.189949	            0.006441	           -0.454359	           -0.013359	            0.357097	           -0.011772	           13.024378	          302.130858	           31.200079	           -0.200598	            0.005858	           -0.725322	            0.019260	            0.446773	            0.046137
            1.266000	          -17.775928	          459.747392	          -15.089397	           -0.189926	            0.006444	           -0.454955	           -0.012438	            0.321689	           -0.010558	           11.976524	          306.913974	           31.499169	           -0.200156	            0.005858	           -0.724821	            0.015770	            0.404116	            0.041475
            1.266500	          -18.419830	          468.761338	          -15.232580	           -0.190310	            0.006440	           -0.454081	           -0.007450	            0.189587	           -0.006161	           10.501621	          313.169484	           31.615983	           -0.200340	            0.005858	           -0.725075	            0.016328	            0.486928	            0.049158
